<svg width="22" height="22" viewBox="0 0 22 22" fill="none" xmlns="http://www.w3.org/2000/svg">
<path d="M10.9997 2.75004C12.2911 2.74975 13.5646 3.05265 14.7176 3.63436C15.8706 4.21607 16.8709 5.06033 17.6381 6.09921C18.4053 7.13809 18.9178 8.34256 19.1345 9.61568C19.3512 10.8888 19.266 12.195 18.8858 13.4292C19.2305 14.1929 19.3346 15.0434 19.184 15.8677C19.0334 16.692 18.6354 17.4508 18.043 18.0433C17.4505 18.6358 16.6916 19.0338 15.8674 19.1843C15.0431 19.3349 14.1925 19.2309 13.4289 18.8861C11.995 19.3284 10.4676 19.3713 9.01123 19.0101C7.55481 18.6489 6.22448 17.8973 5.16344 16.8363C4.1024 15.7753 3.35083 14.4449 2.98964 12.9885C2.62845 11.5321 2.67131 10.0047 3.11361 8.57087C2.76855 7.80716 2.6643 6.95645 2.81473 6.13201C2.96515 5.30757 3.36313 4.54851 3.95567 3.95587C4.54821 3.36323 5.30721 2.96513 6.13162 2.81456C6.95604 2.66399 7.80676 2.76811 8.57053 3.11304C9.35757 2.87133 10.1764 2.74897 10.9997 2.75004V2.75004Z" stroke="#3F3A64" stroke-width="2" stroke-linecap="round" stroke-linejoin="round"/>
<path d="M7.33301 13.2916C7.79134 15.125 9.49451 15.5833 10.9997 15.5833C13.6626 15.5833 14.6663 14.4952 14.6663 13.2916C14.6663 11.9139 12.8999 11 10.9997 11C9.09942 11 7.33301 10.086 7.33301 8.70829C7.33301 7.50471 8.33676 6.41663 10.9997 6.41663C12.5048 6.41663 14.208 6.87496 14.6663 8.70829" stroke="#20AD96" stroke-width="2" stroke-linecap="round" stroke-linejoin="round"/>
</svg>
