<svg width="742" height="136" viewBox="0 0 742 136" fill="none" xmlns="http://www.w3.org/2000/svg">
<path d="M80.9814 15C89.1213 15 96.647 19.3289 100.74 26.3652L120.016 59.508C124.149 66.6122 124.149 75.3878 120.016 82.492L100.74 115.635C96.647 122.671 89.1213 127 80.9814 127H42.1341C33.9942 127 26.4685 122.671 22.376 115.635L3.09901 82.492C-1.03301 75.3878 -1.033 66.6122 3.09902 59.508L22.376 26.3652C26.4685 19.3289 33.9942 15 42.1341 15L80.9814 15Z" fill="#20AD96"/>
<path d="M39 97L51.5455 84.4545H80.8182C81.9273 84.4545 82.9909 84.014 83.7752 83.2297C84.5594 82.4455 85 81.3818 85 80.2727V55.1818C85 54.0727 84.5594 53.0091 83.7752 52.2248C82.9909 51.4406 81.9273 51 80.8182 51H43.1818C42.0727 51 41.0091 51.4406 40.2248 52.2248C39.4406 53.0091 39 54.0727 39 55.1818V97Z" stroke="white" stroke-width="8" stroke-linecap="round" stroke-linejoin="round"/>
<path d="M181.346 97H169.638V39.9783H181.346V63.8134H206.018V39.9783H217.726V97H206.018V74.0393H181.346V97ZM257.834 97H248.331L247.761 92.4763C246.367 94.1489 244.643 95.4541 242.591 96.3918C240.538 97.3041 238.282 97.7603 235.824 97.7603C233.163 97.7603 230.793 97.2534 228.715 96.2397C226.637 95.2006 225.003 93.7814 223.811 91.9821C222.62 90.1574 222.025 88.0919 222.025 85.7857C222.025 83.3528 222.671 81.2113 223.964 79.3613C225.256 77.5112 227.03 76.0667 229.286 75.0276C231.566 73.9632 234.151 73.431 237.04 73.431C238.738 73.431 240.436 73.6211 242.134 74.0012C243.858 74.3814 245.454 74.9136 246.924 75.5978V74.6095C246.924 73.0889 246.493 71.7837 245.632 70.694C244.795 69.5789 243.63 68.7172 242.134 68.109C240.665 67.5008 239.017 67.1966 237.193 67.1966C235.444 67.1966 233.708 67.4754 231.985 68.033C230.287 68.5905 228.715 69.4268 227.271 70.5419L224.306 62.2167C226.865 60.8989 229.45 59.9105 232.061 59.2516C234.696 58.5674 237.243 58.2252 239.702 58.2252C243.402 58.2252 246.607 58.9602 249.319 60.4301C252.031 61.8746 254.122 63.9274 255.592 66.5884C257.087 69.2241 257.834 72.3539 257.834 75.978V97ZM238.219 89.3591C239.663 89.3591 241.045 89.0423 242.363 88.4087C243.68 87.7752 244.745 86.9135 245.556 85.8237C246.392 84.734 246.836 83.5302 246.886 82.2124V81.9463C245.771 81.186 244.529 80.6031 243.161 80.1976C241.818 79.7668 240.449 79.5514 239.055 79.5514C236.977 79.5514 235.279 80.0075 233.961 80.9199C232.643 81.8322 231.985 83.0107 231.985 84.4552C231.985 85.3929 232.251 86.2419 232.783 87.0022C233.34 87.7371 234.088 88.32 235.026 88.7509C235.963 89.1563 237.028 89.3591 238.219 89.3591ZM274.184 116.007H263.236V58.9855H272.815L273.385 64.1555C275.007 62.3054 276.946 60.8609 279.202 59.8218C281.482 58.7574 283.966 58.2252 286.652 58.2252C290.15 58.2252 293.254 59.0869 295.966 60.8102C298.678 62.5082 300.819 64.8524 302.39 67.8429C303.962 70.808 304.747 74.1913 304.747 77.9928C304.747 81.7689 303.962 85.1522 302.39 88.1426C300.819 91.1331 298.678 93.49 295.966 95.2133C293.254 96.9113 290.15 97.7603 286.652 97.7603C284.169 97.7603 281.863 97.3168 279.734 96.4298C277.63 95.5174 275.78 94.263 274.184 92.6663V116.007ZM283.877 87.9526C285.778 87.9526 287.451 87.5344 288.895 86.6981C290.34 85.8364 291.468 84.658 292.279 83.1627C293.115 81.6421 293.533 79.9188 293.533 77.9928C293.533 76.0413 293.115 74.318 292.279 72.8228C291.468 71.3276 290.34 70.1491 288.895 69.2874C287.451 68.4258 285.791 67.9949 283.915 67.9949C282.141 67.9949 280.545 68.3878 279.126 69.1734C277.706 69.9337 276.553 70.9981 275.666 72.3666C274.805 73.7351 274.31 75.3064 274.184 77.0804V78.9811C274.31 80.7045 274.805 82.2504 275.666 83.6189C276.528 84.9621 277.668 86.0265 279.088 86.8121C280.507 87.5724 282.103 87.9526 283.877 87.9526ZM319.5 116.007H308.552V58.9855H318.131L318.702 64.1555C320.324 62.3054 322.262 60.8609 324.518 59.8218C326.799 58.7574 329.282 58.2252 331.969 58.2252C335.466 58.2252 338.571 59.0869 341.282 60.8102C343.994 62.5082 346.135 64.8524 347.707 67.8429C349.278 70.808 350.064 74.1913 350.064 77.9928C350.064 81.7689 349.278 85.1522 347.707 88.1426C346.135 91.1331 343.994 93.49 341.282 95.2133C338.571 96.9113 335.466 97.7603 331.969 97.7603C329.485 97.7603 327.179 97.3168 325.05 96.4298C322.947 95.5174 321.097 94.263 319.5 92.6663V116.007ZM329.194 87.9526C331.094 87.9526 332.767 87.5344 334.212 86.6981C335.656 85.8364 336.784 84.658 337.595 83.1627C338.431 81.6421 338.849 79.9188 338.849 77.9928C338.849 76.0413 338.431 74.318 337.595 72.8228C336.784 71.3276 335.656 70.1491 334.212 69.2874C332.767 68.4258 331.107 67.9949 329.232 67.9949C327.458 67.9949 325.861 68.3878 324.442 69.1734C323.023 69.9337 321.87 70.9981 320.983 72.3666C320.121 73.7351 319.627 75.3064 319.5 77.0804V78.9811C319.627 80.7045 320.121 82.2504 320.983 83.6189C321.844 84.9621 322.985 86.0265 324.404 86.8121C325.823 87.5724 327.42 87.9526 329.194 87.9526ZM372.533 116.007H360.901L368.808 96.962L349.61 58.9855H361.927L373.978 84.5312L384.546 58.9855H396.14L372.533 116.007ZM462.672 89.8533C460.011 92.4383 456.855 94.4657 453.206 95.9356C449.557 97.4055 445.59 98.1404 441.308 98.1404C436.974 98.1404 432.982 97.4055 429.333 95.9356C425.684 94.4404 422.503 92.3622 419.791 89.7012C417.105 87.0149 415.014 83.8723 413.519 80.2736C412.024 76.6749 411.276 72.7468 411.276 68.4891C411.276 64.2315 412.024 60.3034 413.519 56.7046C415.014 53.0806 417.105 49.9381 419.791 47.2771C422.503 44.616 425.684 42.5506 429.333 41.0807C432.982 39.5855 436.974 38.8378 441.308 38.8378C445.565 38.8378 449.506 39.5728 453.13 41.0427C456.779 42.5126 459.935 44.5527 462.596 47.163L454.423 55.3741C452.826 53.4227 450.874 51.8895 448.568 50.7744C446.287 49.634 443.804 49.0637 441.117 49.0637C438.558 49.0637 436.188 49.5579 434.009 50.5463C431.855 51.5093 429.967 52.8779 428.345 54.6519C426.723 56.4005 425.468 58.4533 424.581 60.8102C423.694 63.1671 423.251 65.7141 423.251 68.4511C423.251 71.2389 423.694 73.8112 424.581 76.1681C425.468 78.525 426.723 80.5904 428.345 82.3644C429.967 84.1131 431.855 85.4816 434.009 86.47C436.188 87.433 438.558 87.9145 441.117 87.9145C443.804 87.9145 446.287 87.357 448.568 86.2419C450.849 85.1015 452.788 83.5555 454.384 81.6041L462.672 89.8533ZM484.457 97.7603C480.554 97.7603 477.057 96.9113 473.965 95.2133C470.873 93.49 468.44 91.1458 466.666 88.1806C464.918 85.1902 464.043 81.7942 464.043 77.9928C464.043 74.2167 464.918 70.846 466.666 67.8809C468.44 64.8904 470.873 62.5335 473.965 60.8102C477.057 59.0869 480.554 58.2252 484.457 58.2252C488.36 58.2252 491.832 59.0869 494.873 60.8102C497.939 62.5335 500.347 64.8904 502.096 67.8809C503.87 70.846 504.757 74.2167 504.757 77.9928C504.757 81.7942 503.87 85.1902 502.096 88.1806C500.347 91.1458 497.939 93.49 494.873 95.2133C491.832 96.9113 488.36 97.7603 484.457 97.7603ZM484.419 87.9906C486.168 87.9906 487.726 87.5597 489.095 86.6981C490.489 85.8111 491.578 84.62 492.364 83.1247C493.175 81.6041 493.58 79.8681 493.58 77.9167C493.58 76.0413 493.175 74.356 492.364 72.8608C491.578 71.3656 490.489 70.1871 489.095 69.3255C487.726 68.4385 486.168 67.9949 484.419 67.9949C482.645 67.9949 481.061 68.4385 479.667 69.3255C478.299 70.1871 477.209 71.3656 476.398 72.8608C475.612 74.356 475.219 76.0413 475.219 77.9167C475.219 79.8681 475.612 81.6041 476.398 83.1247C477.209 84.62 478.299 85.8111 479.667 86.6981C481.061 87.5597 482.645 87.9906 484.419 87.9906ZM542.508 97H533.005L532.434 92.4763C531.04 94.1489 529.317 95.4541 527.264 96.3918C525.212 97.3041 522.956 97.7603 520.498 97.7603C517.837 97.7603 515.467 97.2534 513.389 96.2397C511.311 95.2006 509.676 93.7814 508.485 91.9821C507.294 90.1574 506.698 88.0919 506.698 85.7857C506.698 83.3528 507.345 81.2113 508.637 79.3613C509.93 77.5112 511.704 76.0667 513.959 75.0276C516.24 73.9632 518.825 73.431 521.714 73.431C523.412 73.431 525.11 73.6211 526.808 74.0012C528.531 74.3814 530.128 74.9136 531.598 75.5978V74.6095C531.598 73.0889 531.167 71.7837 530.305 70.694C529.469 69.5789 528.303 68.7172 526.808 68.109C525.338 67.5008 523.691 67.1966 521.866 67.1966C520.118 67.1966 518.382 67.4754 516.658 68.033C514.96 68.5905 513.389 69.4268 511.944 70.5419L508.979 62.2167C511.539 60.8989 514.124 59.9105 516.734 59.2516C519.37 58.5674 521.917 58.2252 524.375 58.2252C528.075 58.2252 531.281 58.9602 533.993 60.4301C536.705 61.8746 538.795 63.9274 540.265 66.5884C541.761 69.2241 542.508 72.3539 542.508 75.978V97ZM522.893 89.3591C524.337 89.3591 525.718 89.0423 527.036 88.4087C528.354 87.7752 529.418 86.9135 530.229 85.8237C531.066 84.734 531.509 83.5302 531.56 82.2124V81.9463C530.445 81.186 529.203 80.6031 527.835 80.1976C526.491 79.7668 525.123 79.5514 523.729 79.5514C521.651 79.5514 519.953 80.0075 518.635 80.9199C517.317 81.8322 516.658 83.0107 516.658 84.4552C516.658 85.3929 516.924 86.2419 517.457 87.0022C518.014 87.7371 518.762 88.32 519.699 88.7509C520.637 89.1563 521.702 89.3591 522.893 89.3591ZM581.59 90.9557C579.74 93.0845 577.472 94.7571 574.785 95.9736C572.099 97.1647 569.147 97.7603 565.928 97.7603C562.025 97.7603 558.528 96.9113 555.436 95.2133C552.37 93.49 549.949 91.1331 548.175 88.1426C546.427 85.1522 545.552 81.7689 545.552 77.9928C545.552 74.1913 546.427 70.808 548.175 67.8429C549.949 64.8524 552.37 62.5082 555.436 60.8102C558.528 59.0869 562.025 58.2252 565.928 58.2252C569.121 58.2252 572.061 58.8208 574.747 60.0119C577.434 61.203 579.702 62.8503 581.552 64.9538L575.128 71.6824C574.139 70.5419 572.885 69.6549 571.364 69.0213C569.869 68.3624 568.298 68.033 566.65 68.033C564.75 68.033 563.052 68.4638 561.556 69.3255C560.061 70.1618 558.883 71.3276 558.021 72.8228C557.159 74.2927 556.729 75.9907 556.729 77.9167C556.729 79.8681 557.159 81.6041 558.021 83.1247C558.883 84.6453 560.061 85.8364 561.556 86.6981C563.052 87.5344 564.75 87.9526 566.65 87.9526C568.298 87.9526 569.882 87.6358 571.402 87.0022C572.923 86.3433 574.165 85.4436 575.128 84.3032L581.59 90.9557ZM585.166 97V39.9783H596.077V63.4712C598.814 59.9739 602.742 58.2252 607.861 58.2252C612.651 58.2252 616.389 59.7078 619.075 62.6729C621.762 65.6127 623.105 69.7309 623.105 75.0276V97H612.195V77.9167C612.195 74.7489 611.498 72.3033 610.104 70.5799C608.71 68.8566 606.759 67.9949 604.25 67.9949C601.69 67.9949 599.688 68.8693 598.243 70.6179C596.799 72.3666 596.077 74.7995 596.077 77.9167V97H585.166ZM634.018 49.9001C632.574 49.9001 631.357 49.3932 630.369 48.3795C629.38 47.3658 628.886 46.1366 628.886 44.6921C628.886 43.2475 629.38 42.0311 630.369 41.0427C631.357 40.029 632.574 39.5221 634.018 39.5221C635.488 39.5221 636.717 40.029 637.706 41.0427C638.719 42.0311 639.226 43.2475 639.226 44.6921C639.226 46.1366 638.719 47.3658 637.706 48.3795C636.717 49.3932 635.488 49.9001 634.018 49.9001ZM639.492 97H628.582V58.9855H639.492V97ZM683.706 97H672.796V77.5366C672.796 74.5715 672.086 72.2526 670.667 70.5799C669.273 68.882 667.36 68.033 664.927 68.033C662.393 68.033 660.378 68.92 658.883 70.694C657.413 72.4426 656.678 74.8249 656.678 77.8407V97H645.768V58.9855H654.587L654.967 65.0678C656.336 62.8377 658.122 61.1397 660.327 59.9739C662.532 58.8081 665.13 58.2252 668.12 58.2252C672.961 58.2252 676.762 59.7205 679.525 62.7109C682.312 65.6761 683.706 69.7816 683.706 75.0276V97ZM704.655 97.4562C701.234 97.4562 698.167 96.6072 695.456 94.9092C692.744 93.1859 690.615 90.8543 689.069 87.9145C687.523 84.9494 686.75 81.5915 686.75 77.8407C686.75 74.0646 687.523 70.7066 689.069 67.7669C690.615 64.8271 692.744 62.5082 695.456 60.8102C698.167 59.0869 701.246 58.2252 704.693 58.2252C707.379 58.2252 709.838 58.7574 712.068 59.8218C714.323 60.8609 716.262 62.3054 717.884 64.1555L718.378 58.9855H727.958V95.9356C727.958 100.143 727.033 103.805 725.183 106.922C723.358 110.064 720.773 112.485 717.428 114.183C714.083 115.906 710.167 116.768 705.682 116.768C699.447 116.768 693.796 114.816 688.727 110.913L693.137 102.018C696.507 105.338 700.436 106.998 704.921 106.998C707.329 106.998 709.432 106.516 711.232 105.553C713.056 104.59 714.476 103.247 715.489 101.524C716.528 99.8004 717.048 97.7983 717.048 95.5174V92.4002C715.477 93.9715 713.639 95.2133 711.536 96.1257C709.432 97.0127 707.139 97.4562 704.655 97.4562ZM707.468 87.7245C709.242 87.7245 710.851 87.3443 712.296 86.584C713.741 85.7984 714.894 84.7213 715.755 83.3528C716.617 81.9589 717.048 80.3877 717.048 78.639V77.0044C717.048 75.2557 716.604 73.6971 715.717 72.3286C714.856 70.9601 713.703 69.8957 712.258 69.1354C710.839 68.3498 709.242 67.9569 707.468 67.9569C705.643 67.9569 704.009 68.3878 702.564 69.2494C701.12 70.1111 699.979 71.2895 699.143 72.7848C698.307 74.2547 697.889 75.94 697.889 77.8407C697.889 79.7414 698.307 81.4394 699.143 82.9346C699.979 84.4299 701.12 85.6083 702.564 86.47C704.009 87.3063 705.643 87.7245 707.468 87.7245Z" fill="#333461"/>
</svg>
